<svg xmlns="http://www.w3.org/2000/svg" viewBox="0 0 103 130" style="width:200px; height: auto"><path style="opacity:1" fill="#36343f" d="M47.5 4.5c.876-.13 1.543.202 2 1 2.701 8.193 6.868 15.526 12.5 22 5.048 6.532 6.715 13.865 5 22a226.973 226.973 0 0 1-7 19l-.5 7c.237 6.607 1.57 12.94 4 19 10.335-2.099 20.169-.766 29.5 4 2.071 1.955 2.738 4.288 2 7-4.166 4.499-9.333 6.999-15.5 7.5-7.304 1.141-14.304.141-21-3-9.103-6.217-19.103-10.217-30-12-6.52-1.252-12.52-.085-18 3.5-1.333 1.333-1.333 2.667 0 4 3.96 2.363 8.294 3.363 13 3a199.84 199.84 0 0 1 20-1.5c1.8.317 2.134.984 1 2-11.596 4.12-23.263 4.453-35 1-6.893-5.197-6.56-9.864 1-14 7.479-2.09 15.146-3.09 23-3 4.708-7.518 6.208-15.684 4.5-24.5a108.436 108.436 0 0 0-8-18c-1.44-8.02.227-15.354 5-22 6.013-7.025 10.18-15.025 12.5-24Z"/><path style="opacity:1" fill="#fff" d="M47.5 15.5c4.613 5.176 8.78 10.842 12.5 17 3.63 6.373 4.297 13.04 2 20A66.368 66.368 0 0 0 54.5 77a62.282 62.282 0 0 0 5 17 19.463 19.463 0 0 1-6 4c1.517 1.508 3.35 2.342 5.5 2.5 7.935-2.8 16.102-3.633 24.5-2.5a60.692 60.692 0 0 1 6.5 3.5c.56 2.798-.606 4.631-3.5 5.5a57.833 57.833 0 0 1-20 1A339.73 339.73 0 0 1 39 95.5 174.982 174.982 0 0 0 43.5 75c-1.432-8.627-4.265-16.794-8.5-24.5a42.498 42.498 0 0 1 0-13 363.053 363.053 0 0 0 12.5-22Z"/><path style="opacity:1" fill="#312f3a" d="M45.5 32.5c6.195-1.155 10.361 1.178 12.5 7 1.29 6.375-.544 11.542-5.5 15.5-5.846 1.328-9.68-.839-11.5-6.5-1.682-6.342-.182-11.676 4.5-16Z"/><path style="opacity:1" fill="#fff" d="M47.5 36.5c4.433.277 6.767 2.777 7 7.5-.337 3.54-2.004 6.04-5 7.5-1.883-.376-3.383-1.376-4.5-3-1.227-4.562-.393-8.562 2.5-12Z"/></svg>