<?xml version="1.0" encoding="UTF-8"?>
<!DOCTYPE svg PUBLIC "-//W3C//DTD SVG 1.1//EN" "http://www.w3.org/Graphics/SVG/1.1/DTD/svg11.dtd">
<svg xmlns="http://www.w3.org/2000/svg" version="1.1" width="1030px" height="1300px" xmlns:xlink="http://www.w3.org/1999/xlink">
<g><path style="opacity:1" fill="#36343f" d="M 47.5,4.5 C 48.3764,4.36912 49.0431,4.70245 49.5,5.5C 52.2011,13.6926 56.3678,21.0259 62,27.5C 67.0484,34.0315 68.7151,41.3648 67,49.5C 64.9512,55.9323 62.6179,62.2656 60,68.5C 59.8333,70.8333 59.6667,73.1667 59.5,75.5C 59.7366,82.1069 61.07,88.4402 63.5,94.5C 73.8354,92.4012 83.6688,93.7345 93,98.5C 95.0714,100.455 95.7381,102.788 95,105.5C 90.8338,109.999 85.6672,112.499 79.5,113C 72.1958,114.141 65.1958,113.141 58.5,110C 49.3974,103.783 39.3974,99.7829 28.5,98C 21.9797,96.7478 15.9797,97.9145 10.5,101.5C 9.16667,102.833 9.16667,104.167 10.5,105.5C 14.4605,107.863 18.7938,108.863 23.5,108.5C 30.1716,107.663 36.8383,107.163 43.5,107C 45.3008,107.317 45.6341,107.984 44.5,109C 32.9036,113.12 21.237,113.453 9.5,110C 2.60698,104.803 2.94031,100.136 10.5,96C 17.9789,93.9098 25.6456,92.9098 33.5,93C 38.2075,85.4824 39.7075,77.3157 38,68.5C 35.8825,62.2643 33.2159,56.2643 30,50.5C 28.5607,42.4793 30.2274,35.146 35,28.5C 41.0128,21.4748 45.1795,13.4748 47.5,4.5 Z"/></g>
<g><path style="opacity:1" fill="#ffffff" d="M 47.5,15.5 C 52.1127,20.6757 56.2794,26.3424 60,32.5C 63.63,38.8728 64.2966,45.5394 62,52.5C 57.9073,60.1838 55.4073,68.3504 54.5,77C 55.3533,82.8944 57.02,88.5611 59.5,94C 57.7678,95.6946 55.7678,97.028 53.5,98C 55.0174,99.5084 56.8507,100.342 59,100.5C 66.9353,97.7008 75.102,96.8674 83.5,98C 85.7463,99.0395 87.913,100.206 90,101.5C 90.5608,104.298 89.3941,106.131 86.5,107C 79.9008,108.496 73.2342,108.829 66.5,108C 57.1497,104.242 47.983,100.075 39,95.5C 40.8926,88.8367 42.3926,82.0034 43.5,75C 42.0684,66.3727 39.235,58.206 35,50.5C 34.3333,46.1667 34.3333,41.8333 35,37.5C 39.4436,30.2745 43.6102,22.9411 47.5,15.5 Z"/></g>
<g><path style="opacity:1" fill="#312f3a" d="M 45.5,32.5 C 51.6947,31.3447 55.8614,33.6781 58,39.5C 59.2893,45.8751 57.456,51.0418 52.5,55C 46.6535,56.3281 42.8201,54.1614 41,48.5C 39.3178,42.1576 40.8178,36.8243 45.5,32.5 Z"/></g>
<g><path style="opacity:1" fill="#f0eff1" d="M 47.5,36.5 C 51.9332,36.7766 54.2666,39.2766 54.5,44C 54.1629,47.5394 52.4962,50.0394 49.5,51.5C 47.6171,51.1243 46.1171,50.1243 45,48.5C 43.7734,43.938 44.6067,39.938 47.5,36.5 Z"/></g>
</svg>
