<svg width="24" xmlns="http://www.w3.org/2000/svg" height="24" fill="none"><g data-testid="svg" class="size-6" style="fill: rgb(0, 0, 0);"><g data-testid="svg-path"><path d="m16.862 4.487 1.687-1.688a1.876 1.876 0 0 1 2.652 2.652L6.832 19.82a4.505 4.505 0 0 1-1.897 1.13l-2.685.8.8-2.685a4.505 4.505 0 0 1 1.13-1.897L16.862 4.487Zm0 0L19.5 7.125" fill="none" style="fill: none;" class="fills"/><g fill="none" stroke-linejoin="round" class="strokes"><path d="m16.862 4.487 1.687-1.688a1.876 1.876 0 0 1 2.652 2.652L6.832 19.82a4.505 4.505 0 0 1-1.897 1.13l-2.685.8.8-2.685a4.505 4.505 0 0 1 1.13-1.897L16.862 4.487Zm0 0L19.5 7.125" style="fill: none; stroke-width: 1.5; stroke: rgb(0, 0, 0); stroke-opacity: 1;" class="stroke-shape"/></g></g></g></svg>