<?xml version="1.0" standalone="no"?>
<!DOCTYPE svg PUBLIC "-//W3C//DTD SVG 20010904//EN"
 "http://www.w3.org/TR/2001/REC-SVG-20010904/DTD/svg10.dtd">
<svg version="1.0" xmlns="http://www.w3.org/2000/svg"
 width="865.000000pt" height="999.000000pt" viewBox="0 0 865.000000 999.000000"
 preserveAspectRatio="xMidYMid meet">

<g transform="translate(0.000000,999.000000) scale(0.100000,-0.100000)"
fill="#000000" stroke="none">
<path d="M4055 9829 c-275 -160 -560 -325 -1995 -1154 -492 -285 -1156 -668
-1475 -853 l-580 -335 0 -2497 0 -2497 135 -78 c74 -44 304 -176 510 -295 819
-474 1292 -747 1660 -960 212 -122 574 -332 805 -465 231 -134 501 -290 600
-347 638 -369 605 -351 632 -339 14 6 109 60 212 120 102 59 407 235 676 391
270 155 558 322 640 370 83 48 429 248 770 445 341 197 773 447 960 555 187
108 499 288 693 400 l352 203 0 2497 0 2496 -192 111 c-218 125 -210 121
-1053 608 -900 521 -1336 773 -2105 1217 -377 218 -748 432 -825 477 -77 44
-144 81 -150 81 -5 -1 -127 -68 -270 -151z m625 -324 c173 -100 520 -300 770
-445 671 -388 1252 -723 1540 -890 140 -81 428 -248 640 -370 212 -122 474
-274 583 -337 l197 -115 -2 -2360 -3 -2360 -185 -107 c-102 -59 -293 -170
-425 -246 -132 -76 -350 -202 -485 -280 -135 -79 -533 -309 -885 -512 -1334
-771 -1627 -940 -1858 -1075 -210 -121 -241 -136 -260 -126 -12 6 -89 50 -172
98 -82 48 -395 229 -695 402 -300 173 -691 400 -870 503 -179 103 -383 222
-455 263 -119 68 -335 193 -1015 587 -135 78 -383 221 -552 319 l-308 178 0
2358 0 2358 43 24 c23 14 202 117 397 230 621 359 994 575 1395 806 215 124
442 255 505 292 1757 1017 1743 1009 1765 998 11 -6 162 -93 335 -193z"/>
<path d="M4140 9291 c-102 -59 -477 -276 -835 -483 -357 -206 -762 -440 -900
-520 -137 -80 -486 -281 -775 -448 -289 -167 -608 -352 -710 -411 -102 -59
-184 -111 -183 -115 1 -5 158 -99 350 -210 191 -110 465 -268 608 -351 143
-83 593 -343 1000 -578 407 -235 841 -486 965 -558 124 -71 284 -164 355 -205
72 -42 168 -98 215 -125 47 -27 90 -50 95 -50 6 0 69 34 140 75 135 78 875
506 1095 633 69 40 528 305 1020 590 492 284 997 576 1121 648 l227 131 -52
32 c-28 17 -159 93 -291 169 -132 76 -319 184 -415 240 -96 56 -267 155 -380
220 -113 65 -304 175 -425 245 -225 131 -1141 660 -1545 893 -124 72 -279 161
-345 200 -66 38 -127 72 -135 77 -10 5 -74 -26 -200 -99z m429 -767 c113 -16
247 -56 333 -100 79 -39 190 -127 245 -194 49 -60 101 -146 93 -153 -3 -2 -80
-42 -172 -90 l-167 -86 -68 67 c-124 122 -289 183 -493 184 -289 1 -464 -112
-464 -297 1 -166 134 -241 514 -290 535 -69 784 -205 884 -483 65 -183 51
-421 -37 -587 -39 -73 -170 -207 -249 -254 -118 -69 -290 -122 -461 -142 -141
-16 -384 -7 -516 21 -213 43 -342 110 -481 250 -79 78 -104 112 -143 188 -27
51 -46 96 -42 101 6 11 355 194 359 189 2 -2 14 -25 27 -53 33 -67 140 -173
216 -213 132 -69 240 -94 413 -93 325 0 513 123 515 335 0 95 -36 163 -115
218 -90 61 -207 96 -425 123 -268 34 -457 85 -590 159 -96 54 -203 162 -242
246 -85 179 -83 421 4 583 16 29 64 88 108 132 91 92 198 153 345 200 173 54
405 69 609 39z"/>
<path d="M510 4868 l1 -2083 727 -419 c651 -376 1366 -789 2502 -1446 l375
-217 3 2081 c2 1673 0 2083 -10 2089 -7 4 -231 134 -498 288 -267 154 -546
315 -620 359 -74 43 -281 162 -460 265 -179 103 -377 218 -440 255 -63 37
-266 154 -450 260 -184 106 -500 289 -702 406 -201 117 -380 220 -397 228
l-31 17 0 -2083z m1921 96 c474 -81 788 -390 890 -877 31 -145 31 -381 0 -524
-64 -306 -216 -545 -447 -704 -123 -84 -328 -157 -504 -179 -48 -6 -301 -10
-587 -10 l-503 0 0 1155 0 1155 528 0 c440 0 544 -3 623 -16z"/>
<path d="M1720 3830 l0 -742 298 6 c207 3 316 9 361 20 261 59 431 225 503
491 30 114 30 326 0 440 -56 207 -178 365 -342 443 -139 66 -194 74 -527 79
l-293 4 0 -741z"/>
<path d="M8065 6909 c-82 -48 -159 -93 -810 -469 -799 -462 -833 -482 -1505
-870 -355 -205 -746 -431 -870 -503 -124 -71 -251 -145 -282 -164 l-58 -34 0
-2080 c0 -1143 2 -2079 5 -2079 4 0 322 183 708 406 968 561 1516 878 2529
1463 l358 206 0 2083 c0 1145 -1 2082 -2 2082 -2 0 -34 -19 -73 -41z m-775
-2129 l0 -200 -365 0 -365 0 0 -955 0 -955 -220 0 -220 0 0 955 0 955 -365 0
-365 0 0 200 0 200 950 0 950 0 0 -200z"/>
</g>
</svg>
